HIERARCHY
ROOT Hips
{
	OFFSET 0.000000 0.000000 0.000000
	CHANNELS 6 Xposition Yposition Zposition Zrotation Yrotation Xrotation 
	JOINT LowerBack
	{
		OFFSET 0.000000 0.000000 0.000000
		CHANNELS 3 Zrotation Yrotation Xrotation
		JOINT Spine
		{
			OFFSET 0.028270 2.035590 -0.193380
			CHANNELS 3 Zrotation Yrotation Xrotation
			JOINT Spine1
			{
				OFFSET 0.056720 2.048850 -0.042750
				CHANNELS 3 Zrotation Yrotation Xrotation
				JOINT Neck
				{
					OFFSET 0.000000 0.000000 0.000000
					CHANNELS 3 Zrotation Yrotation Xrotation
					JOINT Neck1
					{
						OFFSET -0.054170 1.746240 0.172020
						CHANNELS 3 Zrotation Yrotation Xrotation
						JOINT Head
						{
							OFFSET 0.104070 1.761360 -0.123970
							CHANNELS 3 Zrotation Yrotation Xrotation
							End Site
							{
								OFFSET 0.000000 0.000000 0.000000
							}
						}
					}
				}
				JOINT LeftShoulder
				{
					OFFSET 0.000000 0.000000 0.000000
					CHANNELS 3 Zrotation Yrotation Xrotation
					JOINT LeftArm
					{
						OFFSET 3.362410 1.200890 -0.311210
						CHANNELS 3 Zrotation Yrotation Xrotation
						JOINT LeftForeArm
						{
							OFFSET 4.983000 -0.000000 -0.000000
							CHANNELS 3 Zrotation Yrotation Xrotation
							JOINT LeftHand
							{
								OFFSET 3.483560 -0.000000 -0.000000
								CHANNELS 3 Zrotation Yrotation Xrotation
								JOINT LeftFingerBase
								{
									OFFSET 0.000000 0.000000 0.000000
									CHANNELS 3 Zrotation Yrotation Xrotation
									JOINT LeftHandIndex1
									{
										OFFSET 0.715260 -0.000000 -0.000000
										CHANNELS 3 Zrotation Yrotation Xrotation
										End Site
										{
											OFFSET 0.000000 0.000000 0.000000
										}
									}
								}
								JOINT LThumb
								{
									OFFSET 0.000000 0.000000 0.000000
									CHANNELS 3 Zrotation Yrotation Xrotation
									End Site
									{
										OFFSET 0.000000 0.000000 0.000000
									}
								}
							}
						}
					}
				}
				JOINT RightShoulder
				{
					OFFSET 0.000000 0.000000 0.000000
					CHANNELS 3 Zrotation Yrotation Xrotation
					JOINT RightArm
					{
						OFFSET -3.136600 1.374050 -0.404650
						CHANNELS 3 Zrotation Yrotation Xrotation
						JOINT RightForeArm
						{
							OFFSET -5.241900 -0.000000 -0.000000
							CHANNELS 3 Zrotation Yrotation Xrotation
							JOINT RightHand
							{
								OFFSET -3.444170 -0.000000 -0.000000
								CHANNELS 3 Zrotation Yrotation Xrotation
								JOINT RightFingerBase
								{
									OFFSET 0.000000 0.000000 0.000000
									CHANNELS 3 Zrotation Yrotation Xrotation
									JOINT RightHandIndex1
									{
										OFFSET -0.622530 -0.000000 -0.000000
										CHANNELS 3 Zrotation Yrotation Xrotation
										End Site
										{
											OFFSET 0.000000 0.000000 0.000000
										}
									}
								}
								JOINT RThumb
								{
									OFFSET 0.000000 0.000000 0.000000
									CHANNELS 3 Zrotation Yrotation Xrotation
									End Site
									{
										OFFSET 0.000000 0.000000 0.000000
									}
								}
							}
						}
					}
				}
			}
		}
	}
}
}
MOTION
Frames: 6
Frame Time: 0.008333
-8.197195 16.866264 -1.791336 101.889670 87.345832 125.653787 -5.992476 0.378549 -6.230187 -2.207071 0.655318 -4.493398 -6.208631 0.646267 -1.149516 11.416882 -6.919043 -9.227468 -2.645047 -0.173816 -0.571287 0.000000 0.000000 0.000000 2.103710 10.743917 3.306347 -54.691672 10.531745 -8.516331 -0.323356 -82.797535 -0.045536 11.807516 1.332692 0.119870 -0.238633 0.216305 0.000000 0.000000 0.000000 0.000000 0.000000 0.000000 0.000000 9.666499 2.075299 0.717147 65.886371 20.440930 18.369131 179.435167 83.805456 -179.920535 10.241887 6.310226 0.631505 -0.213285 -0.572857 -0.000000 0.000000 0.000000 0.000000 0.000000 0.000000 0.000000 
-7.970613 16.791637 -1.803133 106.950862 87.302902 130.128372 -6.017158 0.338971 -5.892957 -2.197622 0.622151 -4.439477 -6.227174 0.609405 -1.223944 11.779880 -6.944688 -9.148574 -2.648638 -0.174570 -0.550555 0.000000 0.000000 0.000000 1.826894 10.635142 3.199631 -55.695741 9.783109 -8.153949 -0.342701 -82.314158 -0.049420 12.574165 1.540916 0.150752 -0.239311 0.216898 0.000000 0.000000 0.000000 0.000000 0.000000 0.000000 0.000000 9.999305 1.961650 0.713562 65.670626 19.986106 17.527170 179.484660 84.206869 -179.925691 9.549645 6.693747 0.622009 -0.196982 -0.578923 -0.000000 0.000000 0.000000 0.000000 0.000000 0.000000 0.000000 
-7.743574 16.723930 -1.814469 111.390203 87.175331 134.021080 -6.066370 0.282882 -5.580255 -2.189784 0.575658 -4.384803 -6.239491 0.558674 -1.280609 12.117612 -6.998630 -9.068950 -2.645439 -0.174764 -0.529108 0.000000 0.000000 0.000000 1.486919 10.563832 3.083103 -56.726720 8.793242 -7.684664 -0.370207 -81.659451 -0.052957 13.243161 1.718780 0.179428 -0.239038 0.218145 0.000000 0.000000 0.000000 0.000000 0.000000 0.000000 0.000000 10.294308 1.786416 0.685858 65.564035 19.462299 16.685824 179.550193 84.776596 -179.932244 8.698295 7.082039 0.597122 -0.177517 -0.583240 -0.000000 0.000000 0.000000 0.000000 0.000000 0.000000 0.000000 
-7.515561 16.665268 -1.824934 114.823313 86.974747 136.960914 -6.141101 0.211305 -5.302597 -2.185137 0.516713 -4.331257 -6.246440 0.495435 -1.317711 12.434337 -7.083414 -8.991592 -2.634894 -0.174354 -0.507830 0.000000 0.000000 0.000000 1.089633 10.533265 2.956776 -57.778587 7.581343 -7.095557 -0.404442 -80.856843 -0.056078 13.794128 1.857916 0.203602 -0.237880 0.220182 0.000000 0.000000 0.000000 0.000000 0.000000 0.000000 0.000000 10.553538 1.552281 0.637928 65.573819 18.865957 15.851773 179.627367 85.500258 -179.939825 7.731288 7.431794 0.555033 -0.156052 -0.584844 -0.000000 0.000000 0.000000 0.000000 0.000000 0.000000 0.000000 
-7.286131 16.617382 -1.834389 117.081080 86.729058 138.787191 -6.232544 0.128709 -5.069138 -2.183305 0.448636 -4.281247 -6.249046 0.423334 -1.336031 12.734686 -7.198766 -8.917282 -2.617260 -0.173395 -0.486942 0.000000 0.000000 0.000000 0.641961 10.536637 2.820607 -58.848884 6.190270 -6.381989 -0.443366 -79.946601 -0.058742 14.215337 1.952881 0.221276 -0.235957 0.223081 0.000000 0.000000 0.000000 0.000000 0.000000 0.000000 0.000000 10.781715 1.267251 0.576515 65.693852 18.199143 15.030786 179.710920 86.354740 -179.947963 6.700274 7.698919 0.496937 -0.133824 -0.582963 -0.000000 0.000000 0.000000 0.000000 0.000000 0.000000 0.000000 
-7.054969 16.581465 -1.843192 118.235695 86.480778 139.577708 -6.316794 0.042869 -4.888800 -2.180436 0.376684 -4.238224 -6.247994 0.347601 -1.340343 13.020516 -7.339291 -8.843258 -2.593541 -0.172060 -0.465536 0.000000 0.000000 0.000000 0.148649 10.552307 2.674874 -59.939021 4.691320 -5.551861 -0.484096 -78.988623 -0.060925 14.503750 2.000961 0.231353 -0.233402 0.226830 0.000000 0.000000 0.000000 0.000000 0.000000 0.000000 0.000000 10.981394 0.946199 0.510340 65.905513 17.462230 14.226876 179.795347 87.308430 -179.956137 5.661904 7.842759 0.427023 -0.112043 -0.577092 -0.000000 0.000000 0.000000 0.000000 0.000000 0.000000 0.000000 
